<svg width="94" height="36" viewBox="0 0 94 36" fill="none" xmlns="http://www.w3.org/2000/svg">
<path d="M5.3822 26.9175C3.82781 29.56 2.48069 32.0988 1.44443 34.3786C1.23718 34.8449 0.770865 34.8449 0.511801 34.4822C-0.109953 33.6532 -0.317208 32.0988 0.770861 29.1973C1.08174 28.4201 1.54805 27.3839 2.16981 26.244C1.02993 25.6222 0.615415 24.845 0.459977 24.4823C0.200913 23.8088 0.304553 23.6015 1.08174 23.7051C1.80712 23.8088 2.5843 23.9124 3.4133 23.9642C7.4547 16.9177 14.6567 6.67169 20.1359 2.16398C20.9649 1.49042 21.483 1.49041 22.0011 2.21579C22.5193 2.94117 22.6747 3.04479 23.1928 4.34011C23.711 5.58362 23.6592 6.7235 23.1928 8.12244C21.8457 12.2157 20.395 17.5006 19.4105 23.187C20.9649 23.7051 21.5348 24.7414 21.7421 25.8295C21.8457 26.2958 21.6385 26.4512 21.1721 26.2958C20.5504 26.1403 19.825 26.0367 18.9442 25.9849C18.5815 28.6792 18.2706 31.5289 18.167 34.2749C18.167 34.7931 17.8561 34.9485 17.3898 34.7413C16.3536 34.2749 15.5246 32.9796 15.4727 30.0263C15.4727 28.99 15.5245 27.6429 15.68 26.0885C12.0013 26.3476 7.80444 26.9694 5.3822 26.9175ZM16.0945 22.928C16.8717 17.5394 18.3224 11.024 19.9286 6.98257C15.9909 11.3867 11.2759 17.656 7.35109 23.8088C10.4987 23.5497 13.6593 22.9798 16.0945 22.928Z" fill="#001A1A"/>
<path d="M27.1306 33.433C29.6176 33.6403 33.2445 29.9097 35.2652 25.9202C35.6279 25.2466 36.1978 25.1948 36.4051 25.9202C36.6642 26.7492 36.4569 27.889 35.887 29.1325C35.1616 30.6869 31.3793 34.9874 27.2342 34.8838C23.6592 34.7801 21.7421 32.2931 22.9338 26.6973C24.8509 17.6819 30.7575 8.31676 36.0295 2.8246C36.8067 1.9956 37.532 1.89198 38.2574 2.56554C39.76 3.91268 40.0709 5.82974 39.4491 8.26494C37.8429 14.6379 32.0399 20.8425 27.4415 23.8476C25.369 28.9253 24.799 33.2258 27.1306 33.433ZM37.6875 7.17688C37.0139 6.76238 33.1798 12.5136 29.6047 19.1327C29.1384 19.9617 28.7239 20.7907 28.3612 21.6197C35.4595 15.8814 38.361 7.59138 37.6875 7.17688Z" fill="#001A1A"/>
<path d="M50.5889 23.7569C49.5009 28.161 46.2366 33.3941 42.4025 34.6894C40.5372 35.3112 37.9466 35.1039 35.8741 32.4097C33.5943 29.4045 34.3715 24.8968 36.7031 20.7518C38.672 17.2285 41.8326 14.2234 44.9413 14.0161C46.5475 13.9125 47.4283 14.3788 48.4646 15.7778C49.6563 17.384 51.2107 17.7466 50.8998 21.4772C50.848 21.8917 50.848 22.2544 50.7962 22.6689C51.107 22.6689 51.4179 22.5652 51.8324 22.5652C52.1951 22.5652 52.1951 22.8243 51.9879 23.0834C51.6122 23.4979 51.0941 23.7051 50.5889 23.7569ZM46.1848 22.4616C45.0968 21.6326 43.8533 19.8192 43.8014 17.9021C42.4025 19.0938 40.8999 20.8036 39.8119 22.7725C37.6357 26.7103 36.8585 31.477 38.2056 32.6169C39.6564 33.8086 42.817 31.9952 45.3558 27.2284C46.133 25.7776 46.7548 24.3269 47.1693 23.0834C46.8066 22.9279 46.4957 22.7207 46.1848 22.4616ZM47.9465 17.8503C47.6874 16.1923 46.6511 16.5031 46.3921 18.0057C46.133 19.4047 46.703 20.9072 47.532 21.6844C47.9465 20.0782 48.1019 18.7829 47.9465 17.8503Z" fill="#001A1A"/>
<path d="M64.4617 35.0392C60.1095 35.0392 59.0214 31.8786 60.5758 27.3709C62.2856 22.3451 66.7933 16.9565 65.9643 16.4902C65.2389 16.0757 59.5913 19.599 56.5862 24.5212C54.7209 27.5782 52.8039 31.2051 51.5604 34.3656C51.3531 34.832 50.9904 34.9356 50.6795 34.5729C49.8505 33.6403 49.3842 32.1895 50.4723 29.0807C52.2857 23.8995 63.0498 5.67431 67.2467 0.441221C67.713 -0.180532 68.2311 -0.128728 68.4902 0.493026C69.1638 1.9956 69.0083 4.58625 67.0394 7.85045C65.7959 9.92296 63.0498 14.1198 60.8219 17.5912C62.9462 15.5187 65.6405 13.8089 67.0394 13.9644C68.8011 14.1716 70.4073 16.7622 69.0601 19.4047C67.9202 21.6845 65.4332 25.4668 64.2415 28.1611C62.9462 31.1662 63.2053 33.6014 65.1223 33.4978C67.2467 33.3941 70.0964 29.6636 71.7026 26.3476C71.9098 25.8813 72.428 25.8813 72.6352 26.2958C72.8943 26.8657 72.8943 27.9538 72.1171 29.5082C70.6793 32.4486 67.5187 35.0392 64.4617 35.0392Z" fill="#001A1A"/>
<path d="M89.6299 14.2234C90.0962 13.5499 90.5107 13.4462 90.8734 13.9125C91.6505 14.8452 92.0651 17.0731 90.8216 19.6638C89.6817 21.9953 87.091 25.8813 85.8475 28.6274C84.5522 31.5289 84.5004 33.7569 86.262 33.6532C88.3863 33.5496 91.2361 30.0263 93.0495 26.4513C93.3086 25.9849 93.6713 25.9331 93.8785 26.3994C94.0858 26.8657 94.0858 28.1611 93.4122 29.6118C92.0651 32.4615 88.8008 35.3112 85.9511 35.1558C83.1532 35.0004 81.7025 33.3423 81.7025 30.9071C80.0445 33.0315 77.7129 34.9485 75.2259 34.9485C70.4073 34.9485 69.4229 28.3683 73.7233 22.1119C77.9202 15.998 82.0134 13.6664 84.604 13.6664C86.832 13.6664 87.8682 15.3763 87.7646 17.397C88.4382 16.1405 89.0599 15.0524 89.6299 14.2234ZM85.4848 16.3478C83.8268 16.1923 80.0445 19.5601 77.1948 24.1715C74.4487 28.6274 73.7751 33.1869 75.7958 33.2387C77.9202 33.2905 80.6144 29.9745 83.2569 25.415C86.5211 19.7156 86.9874 16.5032 85.4848 16.3478Z" fill="#001A1A"/>
</svg>
