<svg width="1136" height="80" viewBox="0 0 1136 80" fill="none" xmlns="http://www.w3.org/2000/svg">
<path d="M5.3822 49.3366C3.82781 51.9791 2.48069 54.5179 1.44443 56.7976C1.23718 57.264 0.770865 57.264 0.511801 56.9013C-0.109953 56.0723 -0.317208 54.5179 0.770861 51.6164C1.08174 50.8392 1.54805 49.8029 2.16981 48.663C1.02993 48.0413 0.615415 47.2641 0.459977 46.9014C0.200913 46.2278 0.304553 46.0206 1.08174 46.1242C1.80712 46.2278 2.5843 46.3314 3.4133 46.3833C7.4547 39.3367 14.6567 29.0908 20.1359 24.583C20.9649 23.9095 21.483 23.9095 22.0011 24.6349C22.5193 25.3602 22.6747 25.4639 23.1928 26.7592C23.711 28.0027 23.6592 29.1426 23.1928 30.5415C21.8457 34.6347 20.395 39.9196 19.4105 45.6061C20.9649 46.1242 21.5348 47.1605 21.7421 48.2485C21.8457 48.7148 21.6385 48.8703 21.1721 48.7148C20.5504 48.5594 19.825 48.4558 18.9442 48.404C18.5815 51.0982 18.2706 53.9479 18.167 56.694C18.167 57.2121 17.8561 57.3676 17.3898 57.1603C16.3536 56.694 15.5246 55.3987 15.4727 52.4454C15.4727 51.4091 15.5245 50.062 15.68 48.5076C12.0013 48.7667 7.80444 49.3884 5.3822 49.3366ZM16.0945 45.347C16.8717 39.9585 18.3224 33.443 19.9286 29.4016C15.9909 33.8057 11.2759 40.0751 7.35109 46.2278C10.4987 45.9688 13.6593 45.3988 16.0945 45.347Z" fill="white"/>
<path d="M27.1306 55.8521C29.6176 56.0593 33.2445 52.3288 35.2652 48.3392C35.6279 47.6657 36.1978 47.6138 36.4051 48.3392C36.6642 49.1682 36.4569 50.3081 35.887 51.5516C35.1616 53.106 31.3793 57.4065 27.2342 57.3028C23.6592 57.1992 21.7421 54.7122 22.9338 49.1164C24.8509 40.101 30.7575 30.7358 36.0295 25.2437C36.8067 24.4147 37.532 24.311 38.2574 24.9846C39.76 26.3317 40.0709 28.2488 39.4491 30.684C37.8429 37.057 32.0399 43.2616 27.4415 46.2667C25.369 51.3444 24.799 55.6448 27.1306 55.8521ZM37.6875 29.5959C37.0139 29.1814 33.1798 34.9327 29.6047 41.5517C29.1384 42.3807 28.7239 43.2097 28.3612 44.0388C35.4595 38.3005 38.361 30.0104 37.6875 29.5959Z" fill="white"/>
<path d="M50.5889 46.176C49.5008 50.5801 46.2366 55.8132 42.4025 57.1085C40.5372 57.7303 37.9466 57.523 35.8741 54.8287C33.5943 51.8236 34.3715 47.3159 36.7031 43.1709C38.6719 39.6476 41.8325 36.6424 44.9413 36.4352C46.5475 36.3316 47.4283 36.7979 48.4645 38.1968C49.6562 39.803 51.2106 40.1657 50.8998 43.8962C50.8479 44.3107 50.8479 44.6734 50.7961 45.0879C51.107 45.0879 51.4179 44.9843 51.8324 44.9843C52.1951 44.9843 52.1951 45.2434 51.9878 45.5024C51.6122 45.9169 51.0941 46.1242 50.5889 46.176ZM46.1848 44.8807C45.0967 44.0517 43.8532 42.2382 43.8014 40.3212C42.4025 41.5128 40.8999 43.2227 39.8118 45.1916C37.6357 49.1293 36.8585 53.8961 38.2056 55.036C39.6564 56.2277 42.817 54.4142 45.3558 49.6475C46.133 48.1967 46.7547 46.7459 47.1692 45.5024C46.8065 45.347 46.4957 45.1397 46.1848 44.8807ZM47.9464 40.2694C47.6874 38.6113 46.6511 38.9222 46.392 40.4248C46.133 41.8237 46.7029 43.3263 47.5319 44.1035C47.9464 42.4973 48.1019 41.202 47.9464 40.2694Z" fill="white"/>
<path d="M64.4617 57.4583C60.1095 57.4583 59.0214 54.2977 60.5758 49.79C62.2856 44.7641 66.7933 39.3756 65.9643 38.9093C65.2389 38.4948 59.5913 42.0181 56.5862 46.9403C54.7209 49.9972 52.8039 53.6241 51.5604 56.7847C51.3531 57.251 50.9904 57.3546 50.6795 56.992C49.8505 56.0593 49.3842 54.6086 50.4723 51.4998C52.2857 46.3185 63.0498 28.0934 67.2467 22.8603C67.713 22.2385 68.2311 22.2903 68.4902 22.9121C69.1638 24.4147 69.0083 27.0053 67.0394 30.2695C65.7959 32.342 63.0498 36.5389 60.8219 40.0103C62.9462 37.9378 65.6405 36.228 67.0394 36.3834C68.8011 36.5907 70.4073 39.1813 69.0601 41.8238C67.9202 44.1035 65.4332 47.8859 64.2415 50.5801C62.9462 53.5853 63.2053 56.0205 65.1223 55.9168C67.2467 55.8132 70.0964 52.0827 71.7026 48.7667C71.9098 48.3004 72.428 48.3004 72.6352 48.7149C72.8943 49.2848 72.8943 50.3729 72.1171 51.9273C70.6793 54.8676 67.5187 57.4583 64.4617 57.4583Z" fill="white"/>
<path d="M89.6299 36.6425C90.0962 35.9689 90.5107 35.8653 90.8734 36.3316C91.6505 37.2642 92.0651 39.4922 90.8216 42.0828C89.6817 44.4144 87.091 48.3004 85.8475 51.0465C84.5522 53.948 84.5004 56.1759 86.262 56.0723C88.3863 55.9687 91.2361 52.4454 93.0495 48.8703C93.3086 48.404 93.6713 48.3522 93.8785 48.8185C94.0858 49.2848 94.0858 50.5801 93.4122 52.0309C92.0651 54.8806 88.8008 57.7303 85.9511 57.5749C83.1532 57.4194 81.7025 55.7614 81.7025 53.3262C80.0445 55.4505 77.7129 57.3676 75.2259 57.3676C70.4073 57.3676 69.4229 50.7874 73.7233 44.531C77.9202 38.4171 82.0134 36.0855 84.604 36.0855C86.832 36.0855 87.8682 37.7953 87.7646 39.816C88.4382 38.5596 89.0599 37.4715 89.6299 36.6425ZM85.4848 38.7668C83.8268 38.6114 80.0445 41.9792 77.1948 46.5905C74.4487 51.0464 73.7751 55.606 75.7958 55.6578C77.9202 55.7096 80.6144 52.3936 83.2569 47.8341C86.5211 42.1347 86.9874 38.9223 85.4848 38.7668Z" fill="white"/>
</svg>
